<svg xmlns="http://www.w3.org/2000/svg" version="1.1" xmlns:xlink="http://www.w3.org/1999/xlink" xmlns:svgjs="http://svgjs.dev/svgjs" width="1000" height="623" viewBox="0 0 1000 623"><g transform="matrix(1,0,0,1,-0.6060606060606233,0.2522267206477409)"><svg viewBox="0 0 396 247" data-background-color="#c8c8c8" preserveAspectRatio="xMidYMid meet" height="623" width="1000" xmlns="http://www.w3.org/2000/svg" xmlns:xlink="http://www.w3.org/1999/xlink"><g id="tight-bounds" transform="matrix(1,0,0,1,0.2400000000000091,-0.09999999999999432)"><svg viewBox="0 0 395.52 247.2" height="247.2" width="395.52"><g><svg viewBox="0 0 395.52 247.2" height="247.2" width="395.52"><g transform="matrix(1,0,0,1,85.5154770318021,0)"><svg viewBox="0 0 224.48904593639577 247.2" height="247.2" width="224.48904593639577"><g><svg viewBox="0 0 224.48904593639577 247.2" height="247.2" width="224.48904593639577"><g><svg viewBox="0 0 224.48904593639577 247.2" height="247.2" width="224.48904593639577"><g id="textblocktransform"><svg viewBox="0 0 224.48904593639577 247.2" height="247.2" width="224.48904593639577" id="textblock"><g><svg viewBox="0 0 224.48904593639577 247.2" height="247.2" width="224.48904593639577"><g transform="matrix(1,0,0,1,0,0)"><svg width="224.48904593639577" viewBox="1.5 -36.5 38.55 42.45" height="247.2" data-palette-color="#6b7280"><g class="undefined-text-0" data-fill-palette-color="primary" id="text-0"><path d="M14.25-15.15L14.25-15.15 14.25-13.6 33.75-13.6 33.75-15.15Q33.75-16.5 33.52-17.65 33.3-18.8 32.95-19.8L32.95-19.8 29.5-27.95Q28.95-29.25 28.35-30.13 27.75-31 26.35-31L26.35-31 21.45-31Q19.95-31 19.35-30.13 18.75-29.25 18.25-28L18.25-28 15.05-19.8Q14.7-18.8 14.48-17.65 14.25-16.5 14.25-15.15ZM19.9-17.9L22.25-25.5Q22.45-25.95 22.68-26.15 22.9-26.35 23.2-26.35L23.2-26.35 24.45-26.35Q24.75-26.35 24.98-26.15 25.2-25.95 25.4-25.5L25.4-25.5 27.75-17.9 19.9-17.9ZM34.25-4.5L33.75-4.5 33.75-13.1 14.25-13.1 14.25-4.5 13.75-4.5 13.75-15.15Q13.75-16.55 13.98-17.73 14.2-18.9 14.6-20L14.6-20 17.8-28.2Q18.35-29.6 19.05-30.55 19.75-31.5 21.45-31.5L21.45-31.5 26.35-31.5Q28-31.5 28.68-30.55 29.35-29.6 29.95-28.15L29.95-28.15 33.4-20Q33.8-18.9 34.02-17.73 34.25-16.55 34.25-15.15L34.25-15.15 34.25-4.5ZM19.4-1.8L19.4-1.8 19.4-8.8 28.25-8.8 28.25-1.8Q28.25-0.85 28.73-0.43 29.2 0 30.2 0L30.2 0 37.75 0Q38.7 0 39.13-0.43 39.55-0.85 39.55-1.8L39.55-1.8 39.55-15Q39.55-16.5 39.08-18.45 38.6-20.4 37.6-23L37.6-23 33.25-34.35Q32.95-35.2 32.33-35.6 31.7-36 30.75-36L30.75-36 17.3-36Q16.3-36 15.68-35.6 15.05-35.2 14.75-34.35L14.75-34.35 10.4-23Q9.4-20.4 8.93-18.45 8.45-16.5 8.45-15L8.45-15 8.45-1.8Q8.45-0.85 8.88-0.43 9.3 0 10.25 0L10.25 0 17.6 0Q18.55 0 18.98-0.43 19.4-0.85 19.4-1.8ZM19.2 0.05L12.7 5.45Q12.5 5.65 12.08 5.8 11.65 5.95 11.15 5.95L11.15 5.95 3.8 5.95Q2.6 5.95 2.05 5.4 1.5 4.85 1.5 3.65L1.5 3.65 1.5-9.55Q1.5-11.1 1.98-13.08 2.45-15.05 3.5-17.75L3.5-17.75 7.8-29.05Q7.95-29.5 8.18-29.83 8.4-30.15 8.65-30.4L8.65-30.4 8.7-30.45 15.1-35.8Q15.5-36.15 16.05-36.33 16.6-36.5 17.3-36.5L17.3-36.5 30.75-36.5Q31.9-36.5 32.63-36.02 33.35-35.55 33.7-34.55L33.7-34.55 38.05-23.2Q39.1-20.5 39.58-18.53 40.05-16.55 40.05-15L40.05-15 40.05-1.8Q40.05-1.15 39.88-0.7 39.7-0.25 39.35 0.05L39.35 0.05 32.85 5.45Q32.65 5.65 32.23 5.8 31.8 5.95 31.3 5.95L31.3 5.95 23.75 5.95Q22.5 5.95 21.9 5.38 21.3 4.8 21.3 3.65L21.3 3.65 21.3-2.85 19.9-2.85 19.9-1.8Q19.9-1.15 19.73-0.7 19.55-0.25 19.2 0.05L19.2 0.05Z" fill="#6b7280" data-fill-palette-color="primary"></path></g></svg></g></svg></g></svg></g></svg></g></svg></g></svg></g></svg></g><defs></defs></svg><rect width="395.52" height="247.2" fill="none" stroke="none" visibility="hidden"></rect></g></svg></g></svg>